<svg width="18" height="18" viewBox="0 0 18 18" fill="none" xmlns="http://www.w3.org/2000/svg">
<path fill-rule="evenodd" clip-rule="evenodd" d="M0.25 9C0.25 13.8325 4.16751 17.75 9 17.75C13.8325 17.75 17.75 13.8325 17.75 9C17.75 4.16751 13.8325 0.25 9 0.25C4.16751 0.25 0.25 4.16751 0.25 9ZM1.5 9C1.5 4.85786 4.85786 1.5 9 1.5C13.1421 1.5 16.5 4.85786 16.5 9C16.5 13.1421 13.1421 16.5 9 16.5C4.85786 16.5 1.5 13.1421 1.5 9ZM9.625 12.75V7.125H7.125V8.375H8.375V12.75H6.5V14H11.5V12.75H9.625ZM8.0625 4.3125C8.0625 3.79473 8.48223 3.375 9 3.375C9.51777 3.375 9.9375 3.79473 9.9375 4.3125C9.9375 4.83027 9.51777 5.25 9 5.25C8.48223 5.25 8.0625 4.83027 8.0625 4.3125Z" fill="#D3FB67"/>
</svg>
