<svg width="255" height="54" viewBox="0 0 255 54" fill="none" xmlns="http://www.w3.org/2000/svg">
<path d="M11.552 0H0V53.2H43.7V42.788H11.552V0Z" fill="white"/>
<path d="M69.3565 9.804C56.4365 9.804 45.6445 16.872 45.6445 31.54C45.6445 46.284 56.4365 53.2 69.3565 53.2C82.3525 53.2 93.1445 46.512 93.1445 31.54C93.1445 16.72 82.3525 9.804 69.3565 9.804ZM69.3565 42.712C62.1365 42.712 56.9685 39.52 56.9685 31.54C56.9685 23.484 62.1365 20.368 69.3565 20.368C76.6525 20.368 81.8205 23.636 81.8205 31.54C81.8205 39.216 76.6525 42.712 69.3565 42.712Z" fill="white"/>
<path d="M121.554 10.564C114.182 10.564 111.598 12.768 109.166 16.872H108.482V10.564H96.9297V53.2H108.482V34.124C108.482 28.348 110.99 21.66 119.578 21.66C123.226 21.66 126.19 22.268 127.254 22.572L129.078 11.704C127.102 11.248 124.594 10.564 121.554 10.564Z" fill="white"/>
<path d="M173.322 34.58H173.778C174.386 28.728 173.626 19.76 165.418 14.136V14.212C161.846 11.704 156.982 10.184 150.978 10.184C136.614 10.184 128.102 17.784 128.102 31.692C128.102 45.904 136.386 53.2 150.978 53.2C164.962 53.2 172.41 47.576 173.55 38.38H162.378C161.314 41.192 157.894 43.092 150.978 43.092C143.53 43.092 140.11 40.28 139.274 34.58H173.322ZM150.978 20.292C159.186 20.292 161.314 23.788 162.226 26.98H139.73C141.098 22.648 144.594 20.292 150.978 20.292Z" fill="white"/>
<path d="M235.816 10.564C225.176 10.564 221.756 13.072 218.944 16.872H218.412C215.98 13.3 211.648 10.564 203.972 10.564C196.372 10.564 192.572 13.072 189.836 16.872H189.304V10.944H177.828V53.2H189.304V32.68C189.304 26.904 189.988 20.52 199.944 20.52C210.432 20.52 210.28 28.576 210.28 31.92V53.2H221.756V32.452L221.832 32.68C221.832 26.904 222.516 20.52 232.472 20.52C242.96 20.52 242.808 28.576 242.808 31.92V53.2H254.36V31.92C254.284 25.688 253.828 10.564 235.816 10.564Z" fill="white"/>
</svg>
